<svg width="24" height="24" viewBox="0 0 24 24" fill="none" xmlns="http://www.w3.org/2000/svg">
<path d="M22.2131 5.65599C21.4496 5.99346 20.64 6.21523 19.8111 6.31399C20.6839 5.79078 21.337 4.96851 21.6491 3.99999C20.8291 4.48799 19.9301 4.82999 18.9941 5.01499C18.3647 4.34157 17.5305 3.89495 16.6211 3.74457C15.7117 3.59419 14.7781 3.74848 13.9654 4.18344C13.1527 4.6184 12.5065 5.30967 12.1272 6.14978C11.748 6.98989 11.6569 7.93177 11.8681 8.82899C10.205 8.74603 8.57796 8.31407 7.09269 7.56119C5.60743 6.80831 4.2972 5.75135 3.24713 4.45899C2.8755 5.09748 2.68018 5.82323 2.68113 6.56199C2.68113 8.01199 3.42012 9.29299 4.54112 10.043C3.87732 10.0209 3.22823 9.84162 2.64713 9.51999V9.57099C2.64709 10.5369 2.98116 11.473 3.59266 12.2207C4.20415 12.9683 5.05544 13.4814 6.00212 13.673C5.38579 13.8404 4.73941 13.865 4.11212 13.745C4.37905 14.5764 4.89934 15.3035 5.60012 15.8244C6.30091 16.3453 7.14708 16.634 8.02013 16.65C7.15232 17.3312 6.15883 17.8347 5.0964 18.1319C4.03397 18.4291 2.9234 18.514 1.82812 18.382C3.73982 19.6114 5.96522 20.2641 8.23812 20.262C15.9321 20.262 20.1381 13.889 20.1381 8.36199C20.1381 8.18132 20.1341 8.00099 20.1261 7.82099C20.9445 7.2293 21.6509 6.49651 22.2121 5.65699" fill="white"/>
</svg>
